<?xml version="1.0" encoding="iso-8859-1"?>
<!-- Uploaded to: SVG Repo, www.svgrepo.com, Generator: SVG Repo Mixer Tools -->
<svg height="800px" width="800px" version="1.1" id="Layer_1" xmlns="http://www.w3.org/2000/svg" xmlns:xlink="http://www.w3.org/1999/xlink" 
	 viewBox="0 0 512.003 512.003" xml:space="preserve">
<g>
	<path style="fill:#90D18F;" d="M512.001,256c0-141.383-114.617-256-256-256s-256,114.617-256,256s114.617,256,256,256
		S512.001,397.383,512.001,256"/>
	<g>
		<path style="fill:#F3FBFF;" d="M256.001,79.448C158.651,79.448,79.45,158.649,79.45,256s79.201,176.552,176.552,176.552
			S432.553,353.351,432.553,256S353.352,79.448,256.001,79.448 M256.001,450.207c-107.087,0-194.207-87.119-194.207-194.207
			S148.914,61.793,256.001,61.793S450.208,148.913,450.208,256S363.089,450.207,256.001,450.207"/>
		<path style="fill:#F3FBFF;" d="M2.484,291.31h71.601c-2.216-11.441-3.46-23.225-3.46-35.31s1.245-23.87,3.46-35.31H2.484
			C0.886,232.236,0.003,244.012,0.003,256S0.886,279.764,2.484,291.31"/>
		<path style="fill:#F3FBFF;" d="M53.698,99.219l50.591,50.591c13.639-19.43,30.87-36.105,50.776-49.09l-50.847-50.847
			C85.186,63.908,68.193,80.539,53.698,99.219"/>
		<path style="fill:#F3FBFF;" d="M256.001,0c-11.988,0-23.764,0.892-35.31,2.481V74.09c11.441-2.225,23.225-3.469,35.31-3.469
			c12.085,0,23.87,1.245,35.31,3.469V2.481C279.765,0.892,267.989,0,256.001,0"/>
		<path style="fill:#F3FBFF;" d="M409.287,50.95l-50.741,50.741c19.756,13.18,36.837,30.031,50.282,49.593l50.617-50.617
			C445.083,81.882,428.213,65.118,409.287,50.95"/>
		<path style="fill:#F3FBFF;" d="M441.381,256c0,12.085-1.245,23.87-3.469,35.31h71.609c1.589-11.546,2.481-23.322,2.481-35.31
			s-0.892-23.764-2.481-35.31h-71.609C440.136,232.13,441.381,243.915,441.381,256"/>
		<path style="fill:#F3FBFF;" d="M411.284,356.933c-12.985,19.906-29.661,37.146-49.09,50.785l50.591,50.582
			c18.67-14.495,35.302-31.479,49.346-50.52L411.284,356.933z"/>
		<path style="fill:#F3FBFF;" d="M220.691,437.913v71.601c11.546,1.598,23.322,2.489,35.31,2.489c11.988,0,23.764-0.892,35.31-2.489
			v-71.601c-11.441,2.216-23.225,3.469-35.31,3.469C243.916,441.382,232.132,440.128,220.691,437.913"/>
		<path style="fill:#F3FBFF;" d="M101.696,358.541l-50.741,50.741c14.168,18.935,30.932,35.796,49.717,50.158l50.617-50.617
			C131.727,395.379,114.867,378.297,101.696,358.541"/>
		<path style="fill:#F3FBFF;" d="M238.346,370.759h-70.621c-4.882,0-8.828-3.946-8.828-8.828c0-4.882,3.946-8.828,8.828-8.828
			h70.621c4.882,0,8.828,3.946,8.828,8.828C247.174,366.813,243.228,370.759,238.346,370.759"/>
		<path style="fill:#F3FBFF;" d="M203.036,370.759c-4.882,0-8.828-3.946-8.828-8.828V183.278l-28.522,34.242
			c-3.134,3.734-8.686,4.237-12.447,1.13c-3.734-3.125-4.246-8.695-1.13-12.447l44.138-52.966c2.392-2.851,6.312-3.893,9.799-2.639
			c3.487,1.262,5.817,4.582,5.817,8.298v203.034C211.863,366.813,207.917,370.759,203.036,370.759"/>
		<path style="fill:#F3FBFF;" d="M304.553,167.724c-21.901,0-39.724,17.823-39.724,39.724v105.931
			c0,21.901,17.823,39.724,39.724,39.724c21.901,0,39.724-17.823,39.724-39.724V207.448
			C344.277,185.547,326.454,167.724,304.553,167.724 M304.553,370.759c-31.638,0-57.379-25.741-57.379-57.379V207.448
			c0-31.638,25.741-57.379,57.379-57.379s57.379,25.741,57.379,57.379v105.931C361.932,345.017,336.191,370.759,304.553,370.759"/>
	</g>
</g>
</svg>